<svg id="Layer_1" data-name="Layer 1" xmlns="http://www.w3.org/2000/svg" viewBox="0 0 362.88 318.33">
    <defs>
        <style>
            .cls-1,.cls-3{fill:#32de84;}.cls-1,.cls-4{stroke:#013668;stroke-miterlimit:10;}.cls-1{stroke-width:5.5px;}.cls-2,.cls-4,.cls-5{fill:#013668;}.cls-3{fill-rule:evenodd;}.cls-5{font-size:76px;font-family:DroidLogo-Bold,
            DroidLogo;font-weight:700;letter-spacing:0.07em;}.cls-6{letter-spacing:0.08em;}
        </style>
    </defs>
    <rect class="cls-1" x="277.1" y="3.7" width="33.51" height="107.54" rx="15.02"
          transform="matrix(0.87, 0.5, -0.5, 0.87, 64.22, -144.5)"/>
    <rect class="cls-1" x="60.93" y="3.7" width="33.51" height="107.54" rx="15.02"
          transform="translate(-22.22 41.26) rotate(-30)"/>
    <path class="cls-2" d="M324.18,214.14a2.88,2.88,0,0,1,5.76,0V236.2a2.88,2.88,0,0,1-5.76,0Z"
          transform="translate(-3.88 -5.28)"/>
    <path class="cls-2" d="M283.68,222.62a2.88,2.88,0,0,1,5.76,0V236.2a2.88,2.88,0,0,1-5.76,0Z"
          transform="translate(-3.88 -5.28)"/>
    <path class="cls-2" d="M243.19,214.14a2.88,2.88,0,0,1,5.76,0V236.2a2.88,2.88,0,0,1-5.76,0Z"
          transform="translate(-3.88 -5.28)"/>
    <path class="cls-2" d="M202.69,222.62a2.88,2.88,0,0,1,5.76,0V236.2a2.88,2.88,0,0,1-5.76,0Z"
          transform="translate(-3.88 -5.28)"/>
    <path class="cls-2" d="M162.2,214.14a2.88,2.88,0,1,1,5.76,0V236.2a2.88,2.88,0,0,1-5.76,0Z"
          transform="translate(-3.88 -5.28)"/>
    <path class="cls-2" d="M121.7,222.62a2.88,2.88,0,0,1,5.76,0V236.2a2.88,2.88,0,0,1-5.76,0Z"
          transform="translate(-3.88 -5.28)"/>
    <path class="cls-2" d="M81.2,214.14a2.88,2.88,0,0,1,5.76,0V236.2a2.88,2.88,0,0,1-5.76,0Z"
          transform="translate(-3.88 -5.28)"/>
    <path class="cls-2" d="M40.71,222.62a2.88,2.88,0,1,1,5.76,0V236.2a2.88,2.88,0,1,1-5.76,0Z"
          transform="translate(-3.88 -5.28)"/>
    <path class="cls-2"
          d="M185.32,55A181.45,181.45,0,0,1,366.76,236.4a2.88,2.88,0,0,1-2.88,2.88H6.76a2.88,2.88,0,0,1-2.88-2.88A181.47,181.47,0,0,1,185.32,55Zm124.23,57.22A175.68,175.68,0,0,0,9.67,233.52H361A175.1,175.1,0,0,0,309.55,112.18Z"
          transform="translate(-3.88 -5.28)"/>
    <path class="cls-2"
          d="M69.66,184.55H301a126.79,126.79,0,0,0-231.33,0Zm235.69,5.76H65.3a2.77,2.77,0,0,1-1.08-.21,2.86,2.86,0,0,1-1.58-3.74A132.54,132.54,0,0,1,308,186.19a2.82,2.82,0,0,1,.28,1.24A2.88,2.88,0,0,1,305.35,190.31Z"
          transform="translate(-3.88 -5.28)"/>
    <path class="cls-3"
          d="M65.3,190.31Zm120-86.37A132.59,132.59,0,0,1,308,186.19a2.82,2.82,0,0,1,.28,1.24,2.88,2.88,0,0,1-2.88,2.88H65.3a2.77,2.77,0,0,1-1.08-.21,2.86,2.86,0,0,1-1.58-3.74,132.58,132.58,0,0,1,122.68-82.41ZM361,233.52a175.68,175.68,0,0,0-351.31,0h31v-10.9a2.88,2.88,0,1,1,5.76,0v10.9H81.2V214.14a2.88,2.88,0,0,1,5.76,0v19.38H121.7v-10.9a2.88,2.88,0,0,1,5.76,0v10.9H162.2V214.14a2.88,2.88,0,1,1,5.76,0v19.38h34.73v-10.9a2.88,2.88,0,0,1,5.76,0v10.9h34.74V214.14a2.88,2.88,0,0,1,5.76,0v19.38h34.73v-10.9a2.88,2.88,0,0,1,5.76,0v10.9h34.74V214.14a2.88,2.88,0,0,1,5.76,0v19.38Z"
          transform="translate(-3.88 -5.28)"/>
    <path class="cls-4" d="M144.18,151.07a10.71,10.71,0,1,1-10.71-10.71A10.7,10.7,0,0,1,144.18,151.07Z"
          transform="translate(-3.88 -5.28)"/>
    <path class="cls-2" d="M247.89,151.07a10.71,10.71,0,1,1-10.71-10.71A10.71,10.71,0,0,1,247.89,151.07Z"
          transform="translate(-3.88 -5.28)"/>
    <text class="cls-5" transform="translate(15.07 297.73)">X
        <tspan class="cls-6" x="64.93" y="0">dimen</tspan>
    </text>
</svg>